Patient4_TMGait_0pt4_02_right_35_EMG.mot
version=1
nRows=30
nColumns=33
inDegrees=no
endheader
time	1LAddLong	2LGlutMax	3LGlutMed	4LIliopsoas	5LSemiMemb	6LBicFemLong	7LRecFem	8LVastMed	9LVastLat	10LGasMed	11LTibAnt	12lTibPost	13LPeroneusLong	14LSol	15LExtDigLong	16LFlexDigLong	17RAddLong	18RGlutMax	19RGlutMed	20RIliopsoas	21RSemiMemb	22RBicFemLong	23RRecFem	24RVastMed	25RVastLat	26RGasMed	27RTibAnt	28RTibPost	29RPeroneusLong	30RSol	31RExtDigLong	32RFlexDigLong
46.595	-0.002747	0.46707	0.2002	0.003204	-0.00061	-0.047913	-0.15778	0.010529	0.22461	0.06134	-0.14496	0.005035	-0.0383	0.13534	-0.59753	0.010681	-0.04303	-1.2526	-2.5877	0.19196	-0.14206	0.083008	0.38925	0.18158	0.088654	-0.002136	0.45258	-0.010529	0.082855	-0.06897	-0.002136	-0.015717
46.596	-0.003204	0.50781	0.15564	0.016785	-0.005341	-0.069427	-0.14069	0.009613	0.24185	0.068054	-0.23941	-0.000305	-0.081482	0.13367	-0.072327	0.017395	-0.10925	-1.1276	-0.95474	0.10635	-0.29831	0.15305	0.15213	0.31754	0.14374	-0.005951	-0.38238	-0.010834	0.094757	-0.19959	-0.000763	-0.022736
46.597	-0.002747	0.54352	0.11185	0.014343	-0.009155	-0.057983	-0.10803	0.014954	0.24857	0.089264	0.027466	-0.000458	-0.21301	0.1088	0.11353	0.013885	-0.10223	-1.0655	0.027924	0.032806	0.35721	0.081635	0.24765	0.33936	0.017853	-0.004425	-0.97855	-0.008087	0.08255	-0.17319	0.002289	-0.014954
46.598	-0.028381	0.52414	0.057983	0.011597	-0.009613	-0.068207	-0.072174	0.016479	0.24902	0.039368	0.29648	-0.002747	-0.080566	0.15701	-0.16525	0.016632	-0.077209	-0.99716	0.015869	0.003967	0.37506	0.066071	0.086975	0.18875	-0.15198	0.003052	-1.2357	-0.010834	0.1004	-0.10544	-0.002136	-0.014648
46.599	-0.022125	0.53421	0.001831	0.017395	-0.011749	-0.053864	-0.015717	0.021515	0.22476	-0.011902	0.22507	-0.00824	0.075836	0.18799	-0.071411	0.028687	-0.016937	-0.9436	-0.4068	-0.10696	0.018616	0.051575	0.069122	0.2121	-0.11429	0.003357	-0.59845	-0.013275	0.002747	-0.22049	-0.00061	-0.016022
46.6	-0.028839	0.50476	-0.10178	0.013885	-0.007172	-0.017548	0.033875	0.020599	0.22675	0.0177	0.12589	-0.005341	-0.011292	0.15701	0.11108	0.011292	0.019379	-0.88592	-0.3305	-0.072784	-0.1181	-0.001831	0.24841	0.16464	-0.085144	-0.001678	-0.34775	-0.013123	-0.13718	-0.30456	-0.002289	-0.015259
46.601	-0.021057	0.47104	-0.20767	0.00412	-0.008698	0.032654	0.06012	0.016022	0.21027	0.060883	0.18784	-0.003052	-0.069427	0.15259	-0.098572	-0.017853	0.037231	-0.79086	-0.91034	-0.001221	-0.006256	-0.027466	0.24902	0.16312	-0.006256	0.000153	-0.69305	-0.009003	-0.077972	-0.25543	-0.001221	-0.018463
46.602	-0.025024	0.44388	-0.26825	-0.002747	-0.009613	0.00824	0.056458	0.018311	0.20676	0.033112	0.10651	-0.000458	0.045166	0.073547	-0.083923	-0.02594	0.067596	-0.66071	-1.2051	-0.022888	0.18219	-0.046539	-0.022888	0.09201	0.00946	0.001526	-0.54672	-0.00946	0.034943	-0.20798	0.000916	-0.024414
46.603	-0.029755	0.44434	-0.28229	0.005493	-0.011292	-0.004272	0.078583	0.014801	0.18997	0.028534	-0.43594	-0.016632	0.076141	0.032959	0.39749	-0.003204	0.057068	-0.53284	-0.27176	-0.05661	0.031891	-0.020447	-0.39322	0.10269	0.012207	0.001984	-0.33066	-0.002441	0.097809	0.059357	0.000763	-0.019531
46.604	0.002289	0.43335	-0.26245	0.001984	-0.008545	-0.015106	0.12726	0.014191	0.19684	0.06134	-0.18509	-0.006409	-0.016174	0.010529	0.2301	0.005035	0.074463	-0.48325	0.63477	-0.10086	-0.13947	-0.063019	-0.37903	0.13214	0.056	0.001984	-0.1355	-0.002441	0.14893	0.087585	0.001373	-0.024109
46.605	-0.009308	0.41321	-0.2298	0.007935	-0.010681	-0.03418	0.15411	0.015259	0.23102	0.000763	0.035553	-0.00412	-0.013733	0.076294	0.10544	0.00412	0.11246	-0.37643	0.56534	-0.060425	-0.11536	-0.067444	-0.27985	0.15259	0.077515	-0.004578	-0.092316	-0.009003	0.24231	0.13397	0.004272	-0.024719
46.606	-0.006561	0.40634	-0.20691	0.023499	-0.001068	-0.054169	0.19806	0.01358	0.20874	-0.002899	0.032043	-0.005646	-0.031128	0.18249	-0.21378	0.008392	0.13504	-0.41107	0.12161	-0.061951	-0.024109	-0.043335	-0.30518	0.14206	0.16357	-0.0177	-0.081635	-0.01297	0.24551	0.33829	0.000305	-0.027771
46.607	0.006561	0.35111	-0.21286	0.026398	0.000916	-0.060883	0.21027	0.01236	0.16068	0.026398	0.35278	-0.003357	-0.0914	0.17899	-0.39276	0.005798	0.059509	-0.41702	-0.5545	-0.031433	-0.1712	0.09079	-0.15961	0.10956	0.17395	-0.029755	-0.016785	-0.020905	0.09964	0.60379	-0.000916	-0.027466
46.608	-0.003204	0.34134	-0.22812	0.014954	0.001221	-0.046997	0.29617	0.010071	0.15533	0.074768	0.37064	-0.007629	-0.19318	-0.027618	-0.12772	0.013428	-0.01709	-0.44861	-1.6425	0.001526	-0.10391	0.20493	-0.16647	0.16174	0.068665	-0.030518	0.042419	-0.074005	0.018768	0.19424	-0.000916	-0.038452
46.609	-0.00061	0.34347	-0.24521	-0.002899	-0.002594	-0.045013	0.36133	0.015717	0.1413	0.078278	0.2124	0.001678	-0.18249	0.044708	0.25818	0.002899	-0.10757	-0.49271	-1.1951	-0.16815	-0.2095	0.24017	-0.37231	0.24796	0.097046	-0.02121	0.071716	-0.13367	-0.079193	-0.065613	-0.000458	-0.032349
46.61	-0.000305	0.35812	-0.27115	0.022583	-0.00473	-0.042419	0.35706	0.014954	0.13809	0.020752	-0.13031	-0.007172	-0.028534	-0.007324	-0.41245	0.012207	-0.10162	-0.47714	-0.38711	-0.20645	0.47653	0.13275	-0.47775	0.20325	0.48675	0.005188	0.072937	-0.073853	-0.030365	-0.11032	-0.006256	-0.031433
46.611	-0.004883	0.31601	-0.29312	0.014801	-0.003967	-0.030212	0.34195	0.009613	0.13626	0.029297	-0.15533	-0.018768	-0.028687	-0.059204	0.027771	0.018005	-0.065308	-0.45807	-1.0388	-0.10025	0.43488	0.032654	-0.41061	0.26962	0.51544	-0.000305	0.1207	0.10178	-0.12466	-0.29358	0.000153	-0.0383
46.612	-0.004272	0.34134	-0.32593	0.009155	-0.005493	-0.020142	0.29465	-0.019531	0.16357	0.024872	-0.13321	-0.001373	0.00885	0.078125	0.28641	0.015259	-0.040894	-0.42877	-0.88333	-0.10986	0.13687	0.028687	-0.4007	0.37643	0.44861	-0.007324	0.12451	0.13931	-0.20096	-0.33402	-0.001221	-0.033417
46.613	-0.008698	0.28992	-0.35812	0.011597	-0.015106	-0.004578	0.23544	-0.013428	0.16556	0.025787	-0.22049	-0.003204	0.053101	0.070496	-0.27435	0.007935	-0.007782	-0.46158	-0.29862	0.046082	-0.17349	0.004883	-0.35309	0.43594	0.30792	-0.003967	0.12558	0.059357	-0.11917	-0.19226	-0.003662	-0.032349
46.614	-0.014496	0.2562	-0.34744	-0.002899	-0.00824	-0.01297	0.25543	-0.013428	0.1474	0.018921	-0.02182	-0.006561	0.025024	0.004578	-0.30121	0.002289	0.014038	-0.57434	-0.27725	0.04715	-0.27222	-0.035858	-0.42984	0.31616	0.20111	-0.015259	0.16556	0.003815	-0.15869	0.059509	-0.00351	-0.027618
46.615	-0.011749	0.20203	-0.31693	-0.016327	-0.002899	-0.019684	0.32044	-0.015869	0.14999	0.019836	0.037842	0	-0.013428	0.02243	-0.271	0.003357	0.011139	-0.63324	-0.76706	0.168	-0.13428	-0.059204	-0.38864	0.36087	0.044708	-0.028381	0.2002	-0.045929	-0.096283	0.3418	-0.002289	-0.024719
46.616	-0.003967	0.15778	-0.27512	0.001678	-0.00351	-0.00885	0.37216	-0.005341	0.14496	0.040741	-0.053101	-0.000458	-0.068207	-0.011444	-0.15167	0.001221	0.00412	-0.47211	-1.3252	0.33157	0.30685	-0.15869	-0.3006	0.26855	-0.36697	-0.003052	0.074921	-0.074463	-0.014343	0.31525	-0.000305	-0.027466
46.617	0.002747	0.14862	-0.23651	0.007019	-0.003357	-0.020599	0.40329	-0.00061	0.11002	0.056915	-0.041199	-0.014191	-0.08606	-0.026245	0.040436	0.00412	0.027771	-0.36453	-0.44113	0.28564	0.081635	-0.22095	-0.21332	0.049438	-0.33402	0.006866	-0.033722	-0.20218	0.057526	0.017548	-0.00061	-0.021973
46.618	0.001678	0.10986	-0.23636	-0.006561	-0.002136	-0.040283	0.35873	-0.003052	0.11002	0.067749	-0.050964	-0.001984	-0.088348	-0.025635	0.16449	0.002747	0.011597	-0.48584	-0.83023	0.1442	0.03952	-0.19486	-0.18982	-0.14374	-0.26138	-0.001373	-0.019531	0.10635	0.044556	-0.38773	-0.001678	-0.023956
46.619	0.001678	0.080109	-0.20309	0.006409	0.005188	-0.053711	0.20554	0.003204	0.086365	0.054321	-0.007172	0.001373	-0.083771	-0.016327	0.27985	0.004425	-0.009766	-0.63736	-0.97458	-0.0737	-0.010986	-0.053711	-0.20462	-0.26398	-0.098267	-0.011139	0.023346	0.16769	-0.035706	-0.29907	-0.00061	-0.027161
46.62	0.005035	0.029755	-0.20309	0.013123	0.001221	-0.033264	0.00885	0.004425	0.081024	0.063019	0.037079	0.000916	-0.090942	-0.059204	0.48981	0.012817	0.02121	-0.76797	0.2533	-0.15747	-0.29587	0.061188	-0.093689	-0.25391	0.015717	-0.005493	0.047455	0.056763	-0.094299	-0.01297	0.00061	-0.029907
46.621	0.001373	0.033722	-0.16174	-0.009155	0.006256	-0.028229	-0.13229	0.000458	0.070496	0.048523	0.12268	0.000763	-0.121	0.006866	1.5059	0.005951	0.046844	-0.77652	-0.32288	-0.14648	-0.24628	-0.069122	-0.03006	-0.23483	0.007324	-0.013733	0.086212	0.035248	-0.022125	0.087128	-0.002136	-0.024719
46.622	0.001373	-0.007782	-0.12207	-0.015869	-0.001678	-0.015411	-0.25635	-0.005188	0.066681	0.002899	0.19257	0.001373	-0.071564	0.11368	-0.40253	0.007019	0.015564	-0.70831	-1.1598	-0.083771	0.015106	-0.10391	-0.10895	-0.18372	-0.11261	-0.015259	0.097351	0.028992	-0.079803	0.24826	-0.00061	-0.018158
46.623	-0.006561	-0.016022	-0.11429	-0.005341	-0.003662	-0.039063	-0.3157	-0.011749	0.084686	-0.014343	0.1741	-0.016785	-0.031891	0.093384	-0.78735	0.012665	-0.008545	-0.65384	-1.0588	-0.025024	0.12375	0.019531	-0.18204	-0.19272	-0.40375	-0.00885	0.09613	0.018311	-0.15579	0.21378	-0.002136	-0.018311
46.624	-0.00824	-0.034027	-0.12238	0.010529	0.002441	-0.009003	-0.25192	-0.009155	0.069885	-0.024872	0.07309	-0.001373	-0.005493	0.082397	-0.54749	0.006561	0.014648	-0.66269	-0.49149	0.15289	0.30792	0.038452	-0.11673	-0.14938	-0.52322	-0.012665	0.11231	0.020447	-0.33203	-0.15198	0.000305	-0.031891
